<svg width="696" height="600" viewBox="0 0 696 600" fill="none" xmlns="http://www.w3.org/2000/svg">
<g clip-path="url(#clip0_154_42)">
<path d="M106 0C47.4578 0 0 47.4578 0 106V200C0 255.228 44.7715 300 100 300V300C155.228 300 202.047 347.454 175.491 395.878C149.175 443.866 103.745 479.954 49.4906 493.808C22.7349 500.64 0 522.386 0 550V550C0 577.614 22.5547 600.437 49.7885 595.869C191.601 572.085 300 448.467 300 300V106C300 47.4578 252.542 0 194 0H106Z" fill="black" fill-opacity="0.04"/>
<path d="M502 0C443.458 0 396 47.4578 396 106V200C396 255.228 440.772 300 496 300V300C551.228 300 598.047 347.454 571.491 395.878C545.175 443.866 499.745 479.954 445.491 493.808C418.735 500.64 396 522.386 396 550V550C396 577.614 418.555 600.437 445.789 595.869C587.601 572.085 696 448.467 696 300V106C696 47.4578 648.542 0 590 0H502Z" fill="black" fill-opacity="0.04"/>
</g>
<defs>
<clipPath id="clip0_154_42">
<rect width="696" height="600" rx="27" fill="white"/>
</clipPath>
</defs>
</svg>
